<?xml version="1.0" encoding="UTF-8" standalone="no"?>
<!DOCTYPE svg PUBLIC "-//W3C//DTD SVG 1.1//EN"
 "http://www.w3.org/Graphics/SVG/1.1/DTD/svg11.dtd">
<!-- Generated by graphviz version 7.0.5 (20221223.1930)
 -->
<!-- Title: G Pages: 1 -->
<svg width="1848pt" height="260pt"
 viewBox="0.00 0.00 1848.07 260.00" xmlns="http://www.w3.org/2000/svg" xmlns:xlink="http://www.w3.org/1999/xlink">
<g id="graph0" class="graph" transform="scale(1 1) rotate(0) translate(4 256)">
<title>G</title>
<polygon fill="white" stroke="none" points="-4,4 -4,-256 1844.07,-256 1844.07,4 -4,4"/>
<!-- bash -->
<g id="node1" class="node">
<title>bash</title>
<ellipse fill="none" stroke="black" cx="1282.79" cy="-234" rx="30.59" ry="18"/>
<text text-anchor="middle" x="1282.79" y="-230.3" font-family="Times,serif" font-size="14.00">bash</text>
</g>
<!-- /bin/sh -->
<g id="node2" class="node">
<title>/bin/sh</title>
<ellipse fill="none" stroke="black" cx="749.79" cy="-162" rx="44.69" ry="18"/>
<text text-anchor="middle" x="749.79" y="-158.3" font-family="Times,serif" font-size="14.00">/bin/sh</text>
</g>
<!-- bash&#45;&gt;/bin/sh -->
<g id="edge1" class="edge">
<title>bash&#45;&gt;/bin/sh</title>
<path fill="none" stroke="black" d="M1252.99,-229.09C1166.39,-217.71 913.89,-184.55 803.03,-169.99"/>
<polygon fill="black" stroke="black" points="803.68,-166.55 793.31,-168.71 802.76,-173.49 803.68,-166.55"/>
</g>
<!-- so:libc.musl&#45;x86_64.so.1 -->
<g id="node3" class="node">
<title>so:libc.musl&#45;x86_64.so.1</title>
<ellipse fill="none" stroke="black" cx="1301.79" cy="-18" rx="128.08" ry="18"/>
<text text-anchor="middle" x="1301.79" y="-14.3" font-family="Times,serif" font-size="14.00">so:libc.musl&#45;x86_64.so.1</text>
</g>
<!-- bash&#45;&gt;so:libc.musl&#45;x86_64.so.1 -->
<g id="edge2" class="edge">
<title>bash&#45;&gt;so:libc.musl&#45;x86_64.so.1</title>
<path fill="none" stroke="black" d="M1284.31,-215.85C1287.57,-179.14 1295.25,-92.66 1299.26,-47.53"/>
<polygon fill="black" stroke="black" points="1302.73,-48.01 1300.13,-37.74 1295.76,-47.39 1302.73,-48.01"/>
</g>
<!-- so:libreadline.so.8 -->
<g id="node4" class="node">
<title>so:libreadline.so.8</title>
<ellipse fill="none" stroke="black" cx="1413.79" cy="-162" rx="103.18" ry="18"/>
<text text-anchor="middle" x="1413.79" y="-158.3" font-family="Times,serif" font-size="14.00">so:libreadline.so.8</text>
</g>
<!-- bash&#45;&gt;so:libreadline.so.8 -->
<g id="edge3" class="edge">
<title>bash&#45;&gt;so:libreadline.so.8</title>
<path fill="none" stroke="black" d="M1305.01,-221.13C1323.62,-211.18 1350.67,-196.73 1373.14,-184.72"/>
<polygon fill="black" stroke="black" points="1374.59,-187.92 1381.76,-180.12 1371.29,-181.74 1374.59,-187.92"/>
</g>
<!-- busybox=1.35.0&#45;r31 -->
<g id="node5" class="node">
<title>busybox=1.35.0&#45;r31</title>
<ellipse fill="none" stroke="black" cx="98.79" cy="-90" rx="98.58" ry="18"/>
<text text-anchor="middle" x="98.79" y="-86.3" font-family="Times,serif" font-size="14.00">busybox=1.35.0&#45;r31</text>
</g>
<!-- /bin/sh&#45;&gt;busybox=1.35.0&#45;r31 -->
<g id="edge4" class="edge">
<title>/bin/sh&#45;&gt;busybox=1.35.0&#45;r31</title>
<path fill="none" stroke="black" d="M706.06,-157.61C613.66,-150.25 391.89,-131.58 206.79,-108 198.48,-106.94 189.82,-105.74 181.18,-104.48"/>
<polygon fill="black" stroke="black" points="181.78,-101.03 171.37,-103.02 180.74,-107.95 181.78,-101.03"/>
</g>
<!-- yash&#45;binsh&#45;2.53&#45;r2 depends on: -->
<g id="node6" class="node">
<title>yash&#45;binsh&#45;2.53&#45;r2 depends on:</title>
<ellipse fill="none" stroke="black" cx="372.79" cy="-90" rx="157.07" ry="18"/>
<text text-anchor="middle" x="372.79" y="-86.3" font-family="Times,serif" font-size="14.00">yash&#45;binsh&#45;2.53&#45;r2 depends on:</text>
</g>
<!-- /bin/sh&#45;&gt;yash&#45;binsh&#45;2.53&#45;r2 depends on: -->
<g id="edge5" class="edge">
<title>/bin/sh&#45;&gt;yash&#45;binsh&#45;2.53&#45;r2 depends on:</title>
<path fill="none" stroke="black" d="M709.8,-153.58C651.7,-142.79 542.35,-122.48 463.95,-107.93"/>
<polygon fill="black" stroke="black" points="465.06,-104.57 454.59,-106.19 463.78,-111.46 465.06,-104.57"/>
</g>
<!-- yash=2.53&#45;r2 -->
<g id="node7" class="node">
<title>yash=2.53&#45;r2</title>
<ellipse fill="none" stroke="black" cx="617.79" cy="-90" rx="69.59" ry="18"/>
<text text-anchor="middle" x="617.79" y="-86.3" font-family="Times,serif" font-size="14.00">yash=2.53&#45;r2</text>
</g>
<!-- /bin/sh&#45;&gt;yash=2.53&#45;r2 -->
<g id="edge6" class="edge">
<title>/bin/sh&#45;&gt;yash=2.53&#45;r2</title>
<path fill="none" stroke="black" d="M723.4,-147C704.52,-136.99 678.78,-123.34 657.43,-112.02"/>
<polygon fill="black" stroke="black" points="659.17,-108.98 648.7,-107.39 655.89,-115.17 659.17,-108.98"/>
</g>
<!-- dash&#45;binsh&#45;0.5.11.5&#45;r2 depends on: -->
<g id="node8" class="node">
<title>dash&#45;binsh&#45;0.5.11.5&#45;r2 depends on:</title>
<ellipse fill="none" stroke="black" cx="881.79" cy="-90" rx="176.57" ry="18"/>
<text text-anchor="middle" x="881.79" y="-86.3" font-family="Times,serif" font-size="14.00">dash&#45;binsh&#45;0.5.11.5&#45;r2 depends on:</text>
</g>
<!-- /bin/sh&#45;&gt;dash&#45;binsh&#45;0.5.11.5&#45;r2 depends on: -->
<g id="edge7" class="edge">
<title>/bin/sh&#45;&gt;dash&#45;binsh&#45;0.5.11.5&#45;r2 depends on:</title>
<path fill="none" stroke="black" d="M776.19,-147C794.42,-137.33 819.05,-124.27 839.94,-113.19"/>
<polygon fill="black" stroke="black" points="841.32,-116.43 848.51,-108.65 838.04,-110.24 841.32,-116.43"/>
</g>
<!-- dash=0.5.11.5&#45;r2 -->
<g id="node9" class="node">
<title>dash=0.5.11.5&#45;r2</title>
<ellipse fill="none" stroke="black" cx="1165.79" cy="-90" rx="89.08" ry="18"/>
<text text-anchor="middle" x="1165.79" y="-86.3" font-family="Times,serif" font-size="14.00">dash=0.5.11.5&#45;r2</text>
</g>
<!-- /bin/sh&#45;&gt;dash=0.5.11.5&#45;r2 -->
<g id="edge8" class="edge">
<title>/bin/sh&#45;&gt;dash=0.5.11.5&#45;r2</title>
<path fill="none" stroke="black" d="M790.72,-154.27C851.28,-144.29 968.33,-124.91 1067.79,-108 1074.61,-106.84 1081.69,-105.63 1088.78,-104.41"/>
<polygon fill="black" stroke="black" points="1089.16,-107.9 1098.42,-102.75 1087.97,-101 1089.16,-107.9"/>
</g>
<!-- so:libreadline.so.8&#45;&gt;so:libc.musl&#45;x86_64.so.1 -->
<g id="edge9" class="edge">
<title>so:libreadline.so.8&#45;&gt;so:libc.musl&#45;x86_64.so.1</title>
<path fill="none" stroke="black" d="M1383.38,-144.54C1368.66,-135.36 1351.66,-122.79 1339.79,-108 1325.33,-89.99 1315.45,-65.66 1309.39,-46.99"/>
<polygon fill="black" stroke="black" points="1312.81,-46.2 1306.55,-37.65 1306.11,-48.24 1312.81,-46.2"/>
</g>
<!-- so:libncursesw.so.6 -->
<g id="node10" class="node">
<title>so:libncursesw.so.6</title>
<ellipse fill="none" stroke="black" cx="1451.79" cy="-90" rx="103.18" ry="18"/>
<text text-anchor="middle" x="1451.79" y="-86.3" font-family="Times,serif" font-size="14.00">so:libncursesw.so.6</text>
</g>
<!-- so:libreadline.so.8&#45;&gt;so:libncursesw.so.6 -->
<g id="edge10" class="edge">
<title>so:libreadline.so.8&#45;&gt;so:libncursesw.so.6</title>
<path fill="none" stroke="black" d="M1423.18,-143.7C1427.37,-135.98 1432.4,-126.71 1437.07,-118.11"/>
<polygon fill="black" stroke="black" points="1440.09,-119.89 1441.78,-109.43 1433.94,-116.55 1440.09,-119.89"/>
</g>
<!-- so:libncursesw.so.6&#45;&gt;so:libc.musl&#45;x86_64.so.1 -->
<g id="edge12" class="edge">
<title>so:libncursesw.so.6&#45;&gt;so:libc.musl&#45;x86_64.so.1</title>
<path fill="none" stroke="black" d="M1417,-72.76C1396.45,-63.18 1370.19,-50.92 1347.93,-40.53"/>
<polygon fill="black" stroke="black" points="1349.61,-37.45 1339.07,-36.4 1346.65,-43.8 1349.61,-37.45"/>
</g>
<!-- ncurses&#45;terminfo&#45;base=6.3_p20221119&#45;r1 -->
<g id="node11" class="node">
<title>ncurses&#45;terminfo&#45;base=6.3_p20221119&#45;r1</title>
<ellipse fill="none" stroke="black" cx="1643.79" cy="-18" rx="196.07" ry="18"/>
<text text-anchor="middle" x="1643.79" y="-14.3" font-family="Times,serif" font-size="14.00">ncurses&#45;terminfo&#45;base=6.3_p20221119&#45;r1</text>
</g>
<!-- so:libncursesw.so.6&#45;&gt;ncurses&#45;terminfo&#45;base=6.3_p20221119&#45;r1 -->
<g id="edge11" class="edge">
<title>so:libncursesw.so.6&#45;&gt;ncurses&#45;terminfo&#45;base=6.3_p20221119&#45;r1</title>
<path fill="none" stroke="black" d="M1494.88,-73.29C1522.06,-63.38 1557.46,-50.47 1586.93,-39.73"/>
<polygon fill="black" stroke="black" points="1587.87,-43.11 1596.07,-36.4 1585.48,-36.54 1587.87,-43.11"/>
</g>
</g>
</svg>
